<?xml version="1.0" encoding="UTF-8"?>
<svg xmlns="http://www.w3.org/2000/svg" xmlns:xlink="http://www.w3.org/1999/xlink" width="20pt" height="20pt" viewBox="0 0 20 20" version="1.1">
<g id="surface1">
<path style=" stroke:none;fill-rule:nonzero;fill:rgb(0%,0%,0%);fill-opacity:1;" d="M 14 20 L 5.898438 20 C 4.25 20 2.949219 18.648438 2.949219 17.050781 L 2.949219 8 C 2.949219 7.699219 3.148438 7.5 3.449219 7.5 C 3.75 7.5 3.949219 7.699219 3.949219 8 L 3.949219 17.050781 C 3.949219 18.148438 4.851562 19 5.898438 19 L 14 19 C 15.101562 19 15.949219 18.101562 15.949219 17.050781 L 15.949219 8 C 15.949219 7.699219 16.148438 7.5 16.449219 7.5 C 16.75 7.5 16.949219 7.699219 16.949219 8 L 16.949219 17.050781 C 16.949219 18.648438 15.601562 20 14 20 Z M 14 20 "/>
<path style=" stroke:none;fill-rule:nonzero;fill:rgb(0%,0%,0%);fill-opacity:1;" d="M 16.648438 2.449219 L 12.851562 2.449219 C 12.601562 1.050781 11.398438 0 9.949219 0 C 8.5 0 7.300781 1.050781 7.050781 2.449219 L 3.25 2.449219 C 2.101562 2.449219 1.199219 3.351562 1.199219 4.5 C 1.199219 5.648438 2.101562 6.5 3.25 6.5 L 16.699219 6.5 C 17.851562 6.5 18.75 5.601562 18.75 4.449219 C 18.75 3.300781 17.800781 2.449219 16.648438 2.449219 Z M 9.949219 1 C 10.851562 1 11.601562 1.601562 11.800781 2.449219 L 8.050781 2.449219 C 8.300781 1.601562 9.050781 1 9.949219 1 Z M 16.648438 5.5 L 3.25 5.5 C 2.699219 5.5 2.199219 5.050781 2.199219 4.449219 C 2.199219 3.898438 2.648438 3.398438 3.25 3.398438 L 16.699219 3.398438 C 17.25 3.398438 17.75 3.851562 17.75 4.449219 C 17.699219 5.050781 17.25 5.5 16.648438 5.5 Z M 16.648438 5.5 "/>
<path style=" stroke:none;fill-rule:nonzero;fill:rgb(0%,0%,0%);fill-opacity:1;" d="M 6.449219 17.550781 C 6.148438 17.550781 5.949219 17.351562 5.949219 17.050781 L 5.949219 8.699219 C 5.949219 8.398438 6.148438 8.199219 6.449219 8.199219 C 6.75 8.199219 6.949219 8.398438 6.949219 8.699219 L 6.949219 17.050781 C 6.949219 17.300781 6.699219 17.550781 6.449219 17.550781 Z M 6.449219 17.550781 "/>
<path style=" stroke:none;fill-rule:nonzero;fill:rgb(0%,0%,0%);fill-opacity:1;" d="M 13.449219 17.550781 C 13.148438 17.550781 12.949219 17.351562 12.949219 17.050781 L 12.949219 8.699219 C 12.949219 8.398438 13.148438 8.199219 13.449219 8.199219 C 13.75 8.199219 13.949219 8.398438 13.949219 8.699219 L 13.949219 17.050781 C 13.949219 17.300781 13.699219 17.550781 13.449219 17.550781 Z M 13.449219 17.550781 "/>
<path style=" stroke:none;fill-rule:nonzero;fill:rgb(0%,0%,0%);fill-opacity:1;" d="M 9.949219 17.550781 C 9.648438 17.550781 9.449219 17.351562 9.449219 17.050781 L 9.449219 8.699219 C 9.449219 8.398438 9.648438 8.199219 9.949219 8.199219 C 10.25 8.199219 10.449219 8.398438 10.449219 8.699219 L 10.449219 17.050781 C 10.449219 17.300781 10.199219 17.550781 9.949219 17.550781 Z M 9.949219 17.550781 "/>
</g>
</svg>
