<?xml version="1.0" encoding="UTF-8"?>
<svg xmlns="http://www.w3.org/2000/svg" xmlns:xlink="http://www.w3.org/1999/xlink" width="16pt" height="16pt" viewBox="0 0 16 16" version="1.1">
<g id="surface1">
<path style=" stroke:none;fill-rule:nonzero;fill:rgb(0%,0%,0%);fill-opacity:1;" d="M 11.199219 16 L 4.71875 16 C 3.398438 16 2.359375 14.921875 2.359375 13.640625 L 2.359375 6.398438 C 2.359375 6.160156 2.519531 6 2.761719 6 C 3 6 3.160156 6.160156 3.160156 6.398438 L 3.160156 13.640625 C 3.160156 14.519531 3.878906 15.199219 4.71875 15.199219 L 11.199219 15.199219 C 12.078125 15.199219 12.761719 14.480469 12.761719 13.640625 L 12.761719 6.398438 C 12.761719 6.160156 12.921875 6 13.160156 6 C 13.398438 6 13.558594 6.160156 13.558594 6.398438 L 13.558594 13.640625 C 13.558594 14.921875 12.480469 16 11.199219 16 Z M 11.199219 16 "/>
<path style=" stroke:none;fill-rule:nonzero;fill:rgb(0%,0%,0%);fill-opacity:1;" d="M 13.320312 1.960938 L 10.28125 1.960938 C 10.078125 0.839844 9.121094 0 7.960938 0 C 6.800781 0 5.839844 0.839844 5.640625 1.960938 L 2.601562 1.960938 C 1.679688 1.960938 0.960938 2.679688 0.960938 3.601562 C 0.960938 4.519531 1.679688 5.199219 2.601562 5.199219 L 13.359375 5.199219 C 14.28125 5.199219 15 4.480469 15 3.558594 C 15 2.640625 14.238281 1.960938 13.320312 1.960938 Z M 7.960938 0.800781 C 8.679688 0.800781 9.28125 1.28125 9.441406 1.960938 L 6.441406 1.960938 C 6.640625 1.28125 7.238281 0.800781 7.960938 0.800781 Z M 13.320312 4.398438 L 2.601562 4.398438 C 2.160156 4.398438 1.761719 4.039062 1.761719 3.558594 C 1.761719 3.121094 2.121094 2.71875 2.601562 2.71875 L 13.359375 2.71875 C 13.800781 2.71875 14.199219 3.078125 14.199219 3.558594 C 14.160156 4.039062 13.800781 4.398438 13.320312 4.398438 Z M 13.320312 4.398438 "/>
<path style=" stroke:none;fill-rule:nonzero;fill:rgb(0%,0%,0%);fill-opacity:1;" d="M 5.160156 14.039062 C 4.921875 14.039062 4.761719 13.878906 4.761719 13.640625 L 4.761719 6.960938 C 4.761719 6.71875 4.921875 6.558594 5.160156 6.558594 C 5.398438 6.558594 5.558594 6.71875 5.558594 6.960938 L 5.558594 13.640625 C 5.558594 13.839844 5.359375 14.039062 5.160156 14.039062 Z M 5.160156 14.039062 "/>
<path style=" stroke:none;fill-rule:nonzero;fill:rgb(0%,0%,0%);fill-opacity:1;" d="M 10.761719 14.039062 C 10.519531 14.039062 10.359375 13.878906 10.359375 13.640625 L 10.359375 6.960938 C 10.359375 6.71875 10.519531 6.558594 10.761719 6.558594 C 11 6.558594 11.160156 6.71875 11.160156 6.960938 L 11.160156 13.640625 C 11.160156 13.839844 10.960938 14.039062 10.761719 14.039062 Z M 10.761719 14.039062 "/>
<path style=" stroke:none;fill-rule:nonzero;fill:rgb(0%,0%,0%);fill-opacity:1;" d="M 7.960938 14.039062 C 7.71875 14.039062 7.558594 13.878906 7.558594 13.640625 L 7.558594 6.960938 C 7.558594 6.71875 7.71875 6.558594 7.960938 6.558594 C 8.199219 6.558594 8.359375 6.71875 8.359375 6.960938 L 8.359375 13.640625 C 8.359375 13.839844 8.160156 14.039062 7.960938 14.039062 Z M 7.960938 14.039062 "/>
</g>
</svg>
